# xmcd
#
# Track frame offsets: 
#        150
#        24180
#        42920
#        58327
#        72775
#        88557
#        106985
#        125647
#        149485
#
# Disc length: 2344 seconds
#
# Revision: 0
# Processed by: cddbd v1.5.1PL0 Copyright (c) Steve Scherf et al.
# Submitted via: ExactAudioCopy v0.95a5
#
DISCID=7c092609
DTITLE=Kevin Dempsey - the cry of love
DYEAR=1988
DGENRE=
TTITLE0=who do you think you are (the cry of love)
TTITLE1=hey lady
TTITLE2=it´s all over now
TTITLE3=your love
TTITLE4=all for you
TTITLE5=come on gigi
TTITLE6=miso soup
TTITLE7=family
TTITLE8=nuevo nido
EXTD=
EXTT0=
EXTT1=
EXTT2=
EXTT3=
EXTT4=
EXTT5=
EXTT6=
EXTT7=
EXTT8=
PLAYORDER=
